<?xml version="1.0" encoding="UTF-8"?>
<svg width="512px" height="512px" viewBox="0 0 512 512" version="1.1" xmlns="http://www.w3.org/2000/svg" xmlns:xlink="http://www.w3.org/1999/xlink">
    <!-- Generator: Sketch 64 (93537) - https://sketch.com -->
    <title>mfdulock-icon</title>
    <desc>Created with Sketch.</desc>
    <g id="mfdulock-icon" stroke="none" stroke-width="1" fill="none" fill-rule="evenodd">
        <rect fill="#222224" x="0" y="0" width="512" height="512"></rect>
        <path d="M258.211895,368 L204,368 L204,144 L262.61572,144 C309.334997,144 349,170.092733 349,255.780862 C349,341.46899 309.334997,368 258.211895,368 M270.276112,112 L95,112 L95,144.145902 L123.115305,144.145902 C133.215273,144.145902 142.004481,147.617008 142.004481,158.915916 L142.004481,353.084084 C142.004481,364.382992 133.215273,367.854098 123.115305,367.854098 L95,367.854098 L95,400 L270.276112,400 C358.574629,400 417,350.915916 417,255.781147 C417,160.656558 358.574629,112 270.276112,112" id="Fill-10" fill="#FFFFFF"></path>
    </g>
</svg>